<svg xmlns="http://www.w3.org/2000/svg" viewBox="0 0 310.92 237.25"><defs><style>.cls-1{fill:#cce4ff;}.cls-2{fill:#54b2ff;}</style></defs><g id="레이어_2" data-name="레이어 2"><g id="레이어_1-2" data-name="레이어 1"><path class="cls-1" d="M25,233.24V236H0v-2.78H11v-6.12H1.64V212.65H23.31v14.47H13.94v6.12ZM4.54,224.37H20.41v-8.94H4.54Z"/><path class="cls-1" d="M50.47,234.75a8.22,8.22,0,0,1-2.65-4,23.2,23.2,0,0,1,0-13.21,8.32,8.32,0,0,1,2.65-4,6.7,6.7,0,0,1,7.93,0,8.32,8.32,0,0,1,2.65,4,23.44,23.44,0,0,1,0,13.21,8.22,8.22,0,0,1-2.65,4,6.7,6.7,0,0,1-7.93,0Zm7.35-3.67c.86-1.51,1.29-3.8,1.29-6.89s-.43-5.36-1.29-6.88a3.66,3.66,0,0,0-6.77,0q-1.29,2.25-1.29,6.89c0,3.09.43,5.38,1.28,6.89a3.68,3.68,0,0,0,6.78,0Zm8.43-19.35h2.93v25.52H66.25Z"/><path class="cls-1" d="M92.79,232.86a10,10,0,0,0,5.84-1.72,10.76,10.76,0,0,0,3.78-4.88,19.2,19.2,0,0,0,1.31-7.39v-3.5H92.79v-2.72h13.88v6.16A21.86,21.86,0,0,1,105,227.7a13.23,13.23,0,0,1-4.84,5.89,13.06,13.06,0,0,1-7.36,2.07Zm19.27-21.13H115v25.52h-2.9Z"/><path class="cls-1" d="M137.43,223.47h25v2.15h-25Zm1.73,7.74h18.71v-1.64H139.1v-2.1h21.58v5.71H142v1.68h19.15V237h-22Zm.08-15.36h18.57v-1.73H139.24V212h21.38v5.8H142.05v1.71H161v2.09H139.24Z"/><path class="cls-1" d="M202.54,216.18H185.32v-2.3h7.15v-2.6h2.93v2.6h7.14Zm-12.37,10a6.27,6.27,0,0,1-2.67-1.58,3.55,3.55,0,0,1,0-4.9,6.26,6.26,0,0,1,2.67-1.57,12.28,12.28,0,0,1,3.76-.54,12.13,12.13,0,0,1,3.75.54,6.12,6.12,0,0,1,2.65,1.57,3.55,3.55,0,0,1,0,4.9,6.13,6.13,0,0,1-2.65,1.58,11.82,11.82,0,0,1-3.75.56A12,12,0,0,1,190.17,226.17Zm-2.89,2.17h21.21v8.58H187.28Zm3.3-7.87a1.75,1.75,0,0,0,0,3.37,8.62,8.62,0,0,0,6.71,0,1.75,1.75,0,0,0,0-3.37,8.62,8.62,0,0,0-6.71,0Zm-.42,14.09h15.46V230.7H190.16Zm18.33-22.83v15.21h-2.9V211.73Z"/><path class="cls-1" d="M257.44,233.24V236h-25v-2.78Zm-24.64-5.56v-2.83q5.22-1.59,5.8-12.95l2.84.39a34.67,34.67,0,0,1-.93,6.58l4.3,5.56q4.27-2.37,4.81-12.53l2.86.39a31.88,31.88,0,0,1-1,6.7l5.8,6.75-2.17,1.76-4.65-5.61c-1.47,3.26-3.69,5.2-6.65,5.79l-4.37-5.79C238,225.15,235.77,227.09,232.8,227.68Z"/><path class="cls-1" d="M290.86,233a19.46,19.46,0,0,0,3.58-.32,11.45,11.45,0,0,0,2.89-.87v2.69a10.38,10.38,0,0,1-2.9.89,19.93,19.93,0,0,1-3.63.33h-9.87V222.63h10.92v-7.26h-11v-2.72h13.88v12.7H283.8V233Zm15.05-8.1H302.4v12.35h-2.9V211.73h2.9v10.34h3.51Z"/><path class="cls-2" d="M76.65,96H138v12.86H.32V96H62.39v-29H37.7a7.85,7.85,0,0,1-5.82-2,7.85,7.85,0,0,1-2-5.82V4.35h78.59V17.21H44.13v37H94.21V26.6h14.26V66.94H76.65Z"/><path class="cls-2" d="M137.67,108.84V96h63.12A18.67,18.67,0,0,0,214.7,90.5a19.12,19.12,0,0,0,5.39-14,19.13,19.13,0,0,0-5.39-14Q209.32,57,200.79,57T187,62.51q-5.31,5.48-5.3,14a21.42,21.42,0,0,0,2.26,9.74H170a17.44,17.44,0,0,1-2.61-9.74A28.22,28.22,0,0,1,174.53,57H154.72V44.16H194V17.56h14.26v26.6H247V57H227.22a28.23,28.23,0,0,1,7.13,19.47A32.13,32.13,0,0,1,230,93.11a30.67,30.67,0,0,1-12,11.56,35.37,35.37,0,0,1-17.21,4.17Zm125.72,37.91h14.26v36.34h-62.6a7,7,0,0,1-7.82-7.83V124.49h70.42v12.87H221.48v32.86h41.91Zm29.38-37.91a26.67,26.67,0,0,1-20.34-11q-7.65-10.08-7.65-30.08V0H279V64.68q0,13.91,3.56,21.39T292.77,96Z"/><circle class="cls-1" cx="304.51" cy="102.47" r="6.4"/></g></g></svg>